# xmcd
#
# Track frame offsets:
#	150
#	7924
#	21404
#	51643
#	60429
#	78280
#	87109
#	112670
#	137152
#	151846
#	168254
#	184806
#	207945
#
# Disc length: 3193 seconds
#
# Revision: 0
# Processed by: cddbd v1.5.1PL2 Copyright (c) Steve Scherf et al.
# Submitted via: audiograbber 1.83.01
#
DISCID=9b0c770d
DTITLE=Avalon - The Final Move CD1
DYEAR=2006
DGENRE=Hard Rock
TTITLE0=The Courts Of Chaos
TTITLE1=Dancer in the eye of the storm
TTITLE2=Arabesque
TTITLE3=Perfect Illusions
TTITLE4=Hard Lovin' Man
TTITLE5=Necronomicon
TTITLE6=Break Away
TTITLE7=Day by Day
TTITLE8=Prophets in Disguise
TTITLE9=The Ancient (Part I)
TTITLE10=Can't Take My Eyes From You
TTITLE11=It Ain't Easy
TTITLE12=Goliath's Hide
EXTD=DAWA Records DWCD 007
EXTT0=Avalon Mark IV, The Third Move classic mini album. 1985\n
EXTT1=Avalon Mark IV, The Third Move classic mini album. 1985
EXTT2=Avalon Mark IV, The Third Move classic mini album. 1985
EXTT3=Avalon Mark IV, The Third Move classic mini album. 1985
EXTT4=Avalon Mark IV, The Third Move classic mini album. 1985
EXTT5=Avalon Mark IV, The Third Move classic mini album. 1985
EXTT6=Avalon Mark VI, The Next Move. 1987
EXTT7=Avalon Mark VI, The Next Move. 1987
EXTT8=Avalon Mark XI. The Final Tapes - Back to the Future. 2006
EXTT9=Avalon Mark XI. The Final Tapes - Back to the Future. 2006
EXTT10=Avalon Mark XI. The Final Tapes - Back to the Future. 2006
EXTT11=Avalon Mark XI. The Final Tapes - Back to the Future. 2006
EXTT12=Avalon Mark X. The Control sessions. 1988
PLAYORDER=
